<svg xmlns="http://www.w3.org/2000/svg" xmlns:xlink="http://www.w3.org/1999/xlink" contentStyleType="text/css" data-diagram-type="DESCRIPTION" height="856px" preserveAspectRatio="none" style="width:1127px;height:856px;" version="1.1" viewBox="0 0 1127 856" width="1127px" zoomAndPan="magnify"><?plantuml 1.2026.3beta4?><defs/><g><!--entity sgx_ra_service--><g class="entity" data-qualified-name="sgx_ra_service" data-source-line="31" id="ent0002"><rect fill="#EEEEEE" height="43.2813" rx="2.5" ry="2.5" style="stroke:#181818;stroke-width:0.5;" width="161.5039" x="952.43" y="7"/><text fill="#000000" font-family="sans-serif" font-size="20" lengthAdjust="spacing" textLength="141.5039" x="962.43" y="35.5645">sgx-ra-service</text></g><!--entity sgx_aesm_service--><g class="entity" data-qualified-name="sgx_aesm_service" data-source-line="32" id="ent0003"><rect fill="#EEEEEE" height="43.2813" rx="2.5" ry="2.5" style="stroke:#181818;stroke-width:0.5;" width="195.4883" x="196.44" y="7"/><text fill="#000000" font-family="sans-serif" font-size="20" lengthAdjust="spacing" textLength="175.4883" x="206.44" y="35.5645">sgx-aesm-service</text></g><!--entity tee_appraisal_tool--><g class="entity" data-qualified-name="tee_appraisal_tool" data-source-line="33" id="ent0004"><rect fill="#EEEEEE" height="43.2813" rx="2.5" ry="2.5" style="stroke:#181818;stroke-width:0.5;" width="196.6699" x="426.85" y="7"/><text fill="#000000" font-family="sans-serif" font-size="20" lengthAdjust="spacing" textLength="176.6699" x="436.85" y="35.5645">tee-appraisal-tool</text></g><!--entity tdx_qgs--><g class="entity" data-qualified-name="tdx_qgs" data-source-line="34" id="ent0005"><rect fill="#EEEEEE" height="43.2813" rx="2.5" ry="2.5" style="stroke:#181818;stroke-width:0.5;" width="95.4004" x="66.49" y="7"/><text fill="#000000" font-family="sans-serif" font-size="20" lengthAdjust="spacing" textLength="75.4004" x="76.49" y="35.5645">tdx-qgs</text></g><!--entity sgx_pck_id_ret_tool--><g class="entity" data-qualified-name="sgx_pck_id_ret_tool" data-source-line="35" id="ent0006"><rect fill="#EEEEEE" height="43.2813" rx="2.5" ry="2.5" style="stroke:#181818;stroke-width:0.5;" width="259.3164" x="658.53" y="7"/><text fill="#000000" font-family="sans-serif" font-size="20" lengthAdjust="spacing" textLength="239.3164" x="668.53" y="35.5645">sgx-pck-id-retrieval-tool</text></g><!--entity lib_dcap_default_qpl--><g class="entity" data-qualified-name="lib_dcap_default_qpl" data-source-line="40" id="ent0007"><rect fill="#D6E9F8" height="43.2813" rx="2.5" ry="2.5" style="stroke:#181818;stroke-width:0.5;" width="250.3711" x="7" y="626.69"/><text fill="#000000" font-family="sans-serif" font-size="20" lengthAdjust="spacing" textLength="230.3711" x="17" y="655.2545">libsgx-dcap-default-qpl</text></g><!--entity sgx_dcap_pccs--><g class="entity" data-qualified-name="sgx_dcap_pccs" data-source-line="41" id="ent0008"><rect fill="#D6E9F8" height="43.2813" rx="2.5" ry="2.5" style="stroke:#181818;stroke-width:0.5;" width="163.1348" x="322.62" y="626.69"/><text fill="#000000" font-family="sans-serif" font-size="20" lengthAdjust="spacing" textLength="143.1348" x="332.62" y="655.2545">sgx-dcap-pccs</text></g><!--entity lib_headers--><g class="entity" data-qualified-name="lib_headers" data-source-line="42" id="ent0009"><rect fill="#D6E9F8" height="43.2813" rx="2.5" ry="2.5" style="stroke:#181818;stroke-width:0.5;" width="166.8555" x="520.76" y="626.69"/><text fill="#000000" font-family="sans-serif" font-size="20" lengthAdjust="spacing" textLength="146.8555" x="530.76" y="655.2545">libsgx-headers</text></g><!--entity lib_pce_logic--><g class="entity" data-qualified-name="lib_pce_logic" data-source-line="43" id="ent0010"><rect fill="#D6E9F8" height="43.2813" rx="2.5" ry="2.5" style="stroke:#181818;stroke-width:0.5;" width="176.2305" x="406.07" y="213.56"/><text fill="#000000" font-family="sans-serif" font-size="20" lengthAdjust="spacing" textLength="156.2305" x="416.07" y="242.1245">libsgx-pce-logic</text></g><!--entity lib_urts--><g class="entity" data-qualified-name="lib_urts" data-source-line="44" id="ent0011"><rect fill="#D6E9F8" height="43.2813" rx="2.5" ry="2.5" style="stroke:#181818;stroke-width:0.5;" width="125.1367" x="416.62" y="316.85"/><text fill="#000000" font-family="sans-serif" font-size="20" lengthAdjust="spacing" textLength="105.1367" x="426.62" y="345.4145">libsgx-urts</text></g><!--entity lib_enclave_common--><g class="entity" data-qualified-name="lib_enclave_common" data-source-line="45" id="ent0012"><rect fill="#D6E9F8" height="43.2813" rx="2.5" ry="2.5" style="stroke:#181818;stroke-width:0.5;" width="258.2324" x="335.07" y="420.13"/><text fill="#000000" font-family="sans-serif" font-size="20" lengthAdjust="spacing" textLength="238.2324" x="345.07" y="448.6945">libsgx-enclave-common</text></g><!--entity lib_ra_uefi--><g class="entity" data-qualified-name="lib_ra_uefi" data-source-line="46" id="ent0013"><rect fill="#D6E9F8" height="43.2813" rx="2.5" ry="2.5" style="stroke:#181818;stroke-width:0.5;" width="151.25" x="841.56" y="110.28"/><text fill="#000000" font-family="sans-serif" font-size="20" lengthAdjust="spacing" textLength="131.25" x="851.56" y="138.8445">libsgx-ra-uefi</text></g><!--entity lib_ra_network--><g class="entity" data-qualified-name="lib_ra_network" data-source-line="47" id="ent0014"><rect fill="#D6E9F8" height="43.2813" rx="2.5" ry="2.5" style="stroke:#181818;stroke-width:0.5;" width="194.8926" x="894.74" y="213.56"/><text fill="#000000" font-family="sans-serif" font-size="20" lengthAdjust="spacing" textLength="174.8926" x="904.74" y="242.1245">libsgx-ra-network</text></g><!--entity libtdx_attest--><g class="entity" data-qualified-name="libtdx_attest" data-source-line="48" id="ent0015"><rect fill="#D6E9F8" height="43.2813" rx="2.5" ry="2.5" style="stroke:#181818;stroke-width:0.5;" width="141.9043" x="807.23" y="626.69"/><text fill="#000000" font-family="sans-serif" font-size="20" lengthAdjust="spacing" textLength="121.9043" x="817.23" y="655.2545">libtdx-attest</text></g><!--entity libsgx_tdx_logic--><g class="entity" data-qualified-name="libsgx_tdx_logic" data-source-line="49" id="ent0016"><rect fill="#D6E9F8" height="43.2813" rx="2.5" ry="2.5" style="stroke:#181818;stroke-width:0.5;" width="223.4668" x="135.45" y="110.28"/><text fill="#000000" font-family="sans-serif" font-size="20" lengthAdjust="spacing" textLength="152.6074" x="170.8797" y="138.8445">libsgx-tdx-logic</text></g><!--entity ae_pce--><g class="entity" data-qualified-name="ae_pce" data-source-line="53" id="ent0017"><rect fill="#D2ECD2" height="43.2813" rx="2.5" ry="2.5" style="stroke:#181818;stroke-width:0.5;" width="153.75" x="609.31" y="523.41"/><text fill="#000000" font-family="sans-serif" font-size="20" lengthAdjust="spacing" textLength="133.75" x="619.31" y="551.9745">libsgx-ae-pce</text></g><!--entity ae_id--><g class="entity" data-qualified-name="ae_id" data-source-line="54" id="ent0018"><rect fill="#D2ECD2" height="43.2813" rx="2.5" ry="2.5" style="stroke:#181818;stroke-width:0.5;" width="221.1523" x="353.61" y="523.41"/><text fill="#000000" font-family="sans-serif" font-size="20" lengthAdjust="spacing" textLength="201.1523" x="363.61" y="551.9745">libsgx-ae-id-enclave</text></g><!--entity lib_ae_tdqe--><g class="entity" data-qualified-name="lib_ae_tdqe" data-source-line="55" id="ent0019"><rect fill="#D2ECD2" height="43.2813" rx="2.5" ry="2.5" style="stroke:#181818;stroke-width:0.5;" width="163.291" x="155.54" y="523.41"/><text fill="#000000" font-family="sans-serif" font-size="20" lengthAdjust="spacing" textLength="143.291" x="165.54" y="551.9745">libsgx-ae-tdqe</text></g><!--entity tdx_app--><g class="entity" data-qualified-name="tdx_app" data-source-line="56" id="ent0020"><rect fill="#FFBA53" height="43.2813" rx="2.5" ry="2.5" style="stroke:#181818;stroke-width:0.5;" width="160.3906" x="797.99" y="523.41"/><text fill="#000000" font-family="sans-serif" font-size="20" lengthAdjust="spacing" textLength="140.3906" x="807.99" y="551.9745">tdx-guest-app</text></g><!--link lib_enclave_common to ae_pce--><!--link lib_enclave_common to lib_ae_tdqe--><!--link lib_enclave_common to ae_id--><!--link lib_ra_uefi to lib_ra_network--><!--link ae_id to lib_dcap_default_qpl--><!--link ae_id to sgx_dcap_pccs--><!--link ae_id to lib_headers--><!--link sgx_pck_id_ret_tool to lib_urts--><g class="link" data-entity-1="ent0006" data-entity-2="ent0011" data-link-type="dependency" data-source-line="70" id="lnk28"><path d="M684.66,50.46 C684.66,121.1 684.66,338.97 684.66,338.97 C684.66,338.97 608.63,338.97 548.23,338.97" fill="none" id="sgx_pck_id_ret_tool-to-lib_urts" style="stroke:#181818;stroke-width:1;stroke-dasharray:7,7;"/><polygon fill="#181818" points="542.23,338.97,551.23,342.97,547.23,338.97,551.23,334.97,542.23,338.97" style="stroke:#181818;stroke-width:1;"/></g><!--link sgx_pck_id_ret_tool to lib_ra_uefi--><g class="link" data-entity-1="ent0006" data-entity-2="ent0013" data-link-type="dependency" data-source-line="71" id="lnk29"><path d="M879.7,50.55 C879.7,68.07 879.7,86.53 879.7,104.05" fill="none" id="sgx_pck_id_ret_tool-to-lib_ra_uefi" style="stroke:#181818;stroke-width:1;stroke-dasharray:7,7;"/><polygon fill="#181818" points="879.7,110.05,883.7,101.05,879.7,105.05,875.7,101.05,879.7,110.05" style="stroke:#181818;stroke-width:1;"/></g><!--link sgx_pck_id_ret_tool to ae_pce--><g class="link" data-entity-1="ent0006" data-entity-2="ent0017" data-link-type="dependency" data-source-line="72" id="lnk30"><path d="M736.93,50.5 C736.93,134.87 736.93,432.8 736.93,517.18" fill="none" id="sgx_pck_id_ret_tool-to-ae_pce" style="stroke:#181818;stroke-width:1;stroke-dasharray:7,7;"/><polygon fill="#181818" points="736.93,523.18,740.93,514.18,736.93,518.18,732.93,514.18,736.93,523.18" style="stroke:#181818;stroke-width:1;"/></g><!--link sgx_pck_id_ret_tool to ae_id--><g class="link" data-entity-1="ent0006" data-entity-2="ent0018" data-link-type="dependency" data-source-line="73" id="lnk31"><path d="M710.79,50.77 C710.79,143.25 710.79,493.97 710.79,493.97 C710.79,493.97 501.04,493.97 501.04,493.97 C501.04,493.97 501.04,503.25 501.04,517.09" fill="none" id="sgx_pck_id_ret_tool-to-ae_id" style="stroke:#181818;stroke-width:1;stroke-dasharray:7,7;"/><polygon fill="#181818" points="501.04,523.09,505.04,514.09,501.04,518.09,497.04,514.09,501.04,523.09" style="stroke:#181818;stroke-width:1;"/></g><!--link tdx_app to libtdx_attest--><g class="link" data-entity-1="ent0020" data-entity-2="ent0015" data-link-type="dependency" data-source-line="76" id="lnk32"><path d="M878.19,566.95 C878.19,584.48 878.19,602.94 878.19,620.46" fill="none" id="tdx_app-to-libtdx_attest" style="stroke:#181818;stroke-width:1;"/><polygon fill="#181818" points="878.19,626.46,882.19,617.46,878.19,621.46,874.19,617.46,878.19,626.46" style="stroke:#181818;stroke-width:1;"/></g><!--link lib_pce_logic to lib_urts--><g class="link" data-entity-1="ent0010" data-entity-2="ent0011" data-link-type="dependency" data-source-line="77" id="lnk33"><path d="M479.19,257.11 C479.19,274.63 479.19,293.1 479.19,310.61" fill="none" id="lib_pce_logic-to-lib_urts" style="stroke:#181818;stroke-width:1;"/><polygon fill="#181818" points="479.19,316.61,483.19,307.61,479.19,311.61,475.19,307.61,479.19,316.61" style="stroke:#181818;stroke-width:1;"/></g><!--link lib_pce_logic to ae_pce--><g class="link" data-entity-1="ent0010" data-entity-2="ent0017" data-link-type="dependency" data-source-line="78" id="lnk34"><path d="M582.74,235.97 C603.04,235.97 618.78,235.97 618.78,235.97 C618.78,235.97 618.78,446.96 618.78,517.31" fill="none" id="lib_pce_logic-to-ae_pce" style="stroke:#181818;stroke-width:1;"/><polygon fill="#181818" points="618.78,523.31,622.78,514.31,618.78,518.31,614.78,514.31,618.78,523.31" style="stroke:#181818;stroke-width:1;"/></g><!--link lib_urts to lib_enclave_common--><g class="link" data-entity-1="ent0011" data-entity-2="ent0012" data-link-type="dependency" data-source-line="79" id="lnk35"><path d="M479.19,360.39 C479.19,377.92 479.19,396.38 479.19,413.9" fill="none" id="lib_urts-to-lib_enclave_common" style="stroke:#181818;stroke-width:1;"/><polygon fill="#181818" points="479.19,419.9,483.19,410.9,479.19,414.9,475.19,410.9,479.19,419.9" style="stroke:#181818;stroke-width:1;"/></g><!--link sgx_ra_service to lib_ra_uefi--><g class="link" data-entity-1="ent0002" data-entity-2="ent0013" data-link-type="dependency" data-source-line="80" id="lnk36"><path d="M972.62,50.55 C972.62,68.07 972.62,86.53 972.62,104.05" fill="none" id="sgx_ra_service-to-lib_ra_uefi" style="stroke:#181818;stroke-width:1;"/><polygon fill="#181818" points="972.62,110.05,976.62,101.05,972.62,105.05,968.62,101.05,972.62,110.05" style="stroke:#181818;stroke-width:1;"/></g><!--link sgx_ra_service to lib_ra_network--><g class="link" data-entity-1="ent0002" data-entity-2="ent0014" data-link-type="dependency" data-source-line="81" id="lnk37"><path d="M1041.22,50.75 C1041.22,90.51 1041.22,167.62 1041.22,207.26" fill="none" id="sgx_ra_service-to-lib_ra_network" style="stroke:#181818;stroke-width:1;"/><polygon fill="#181818" points="1041.22,213.26,1045.22,204.26,1041.22,208.26,1037.22,204.26,1041.22,213.26" style="stroke:#181818;stroke-width:1;"/></g><!--link tdx_qgs to libsgx_tdx_logic--><g class="link" data-entity-1="ent0005" data-entity-2="ent0016" data-link-type="dependency" data-source-line="82" id="lnk38"><path d="M148.67,50.55 C148.67,68.07 148.67,86.53 148.67,104.05" fill="none" id="tdx_qgs-to-libsgx_tdx_logic" style="stroke:#181818;stroke-width:1;"/><polygon fill="#181818" points="148.67,110.05,152.67,101.05,148.67,105.05,144.67,101.05,148.67,110.05" style="stroke:#181818;stroke-width:1;"/></g><!--link libsgx_tdx_logic to lib_ae_tdqe--><g class="link" data-entity-1="ent0016" data-entity-2="ent0019" data-link-type="dependency" data-source-line="83" id="lnk39"><path d="M237.19,153.84 C237.19,225.41 237.19,445.69 237.19,517.18" fill="none" id="libsgx_tdx_logic-to-lib_ae_tdqe" style="stroke:#181818;stroke-width:1;"/><polygon fill="#181818" points="237.19,523.18,241.19,514.18,237.19,518.18,233.19,514.18,237.19,523.18" style="stroke:#181818;stroke-width:1;"/></g><!--link libsgx_tdx_logic to lib_pce_logic--><g class="link" data-entity-1="ent0016" data-entity-2="ent0010" data-link-type="dependency" data-source-line="84" id="lnk40"><path d="M359.15,131.97 C390.63,131.97 416.46,131.97 416.46,131.97 C416.46,131.97 416.46,177.01 416.46,207.31" fill="none" id="libsgx_tdx_logic-to-lib_pce_logic" style="stroke:#181818;stroke-width:1;"/><polygon fill="#181818" points="416.46,213.31,420.46,204.31,416.46,208.31,412.46,204.31,416.46,213.31" style="stroke:#181818;stroke-width:1;"/></g><!--link libsgx_tdx_logic to ae_id--><g class="link" data-entity-1="ent0016" data-entity-2="ent0018" data-link-type="dependency" data-source-line="85" id="lnk41"><path d="M328.84,154.04 C328.84,238.78 328.84,537.97 328.84,537.97 C328.84,537.97 332.82,537.97 347.35,537.97" fill="none" id="libsgx_tdx_logic-to-ae_id" style="stroke:#181818;stroke-width:1;"/><polygon fill="#181818" points="353.35,537.97,344.35,533.97,348.35,537.97,344.35,541.97,353.35,537.97" style="stroke:#181818;stroke-width:1;"/></g><!--link libsgx_tdx_logic to lib_urts--><g class="link" data-entity-1="ent0016" data-entity-2="ent0011" data-link-type="dependency" data-source-line="86" id="lnk42"><path d="M346.99,153.69 C346.99,206.85 346.99,338.97 346.99,338.97 C346.99,338.97 376.14,338.97 410.19,338.97" fill="none" id="libsgx_tdx_logic-to-lib_urts" style="stroke:#181818;stroke-width:1;"/><polygon fill="#181818" points="416.19,338.97,407.19,334.97,411.19,338.97,407.19,342.97,416.19,338.97" style="stroke:#181818;stroke-width:1;"/></g><!--link libsgx_tdx_logic to lib_dcap_default_qpl--><g class="link" data-entity-1="ent0016" data-entity-2="ent0007" data-link-type="dependency" data-source-line="87" id="lnk43"><path d="M145.5,153.78 C145.5,238.15 145.5,536.08 145.5,620.46" fill="none" id="libsgx_tdx_logic-to-lib_dcap_default_qpl" style="stroke:#181818;stroke-width:1;"/><polygon fill="#181818" points="145.5,626.46,149.5,617.46,145.5,621.46,141.5,617.46,145.5,626.46" style="stroke:#181818;stroke-width:1;"/></g><g class="legend" data-source-line="93"><rect fill="#FFFFFF" height="147.8672" rx="7.5" ry="7.5" style="stroke:#000000;stroke-width:1;" width="916.0254" x="102.4543" y="689.9713"/><text fill="#000000" font-family="sans-serif" font-size="20" lengthAdjust="spacing" textLength="6.3574" x="107.4543" y="713.5357">&#160;</text><rect fill="#FFFFFF" height="23.2813" style="stroke:none;stroke-width:1;" width="906.0254" x="107.4543" y="720.2525"/><rect fill="#EEEEEE" height="23.2813" style="stroke:none;stroke-width:1;" width="52.4414" x="107.4543" y="720.2525"/><text fill="#000000" font-family="sans-serif" font-size="20" lengthAdjust="spacing" textLength="19.0723" x="107.4543" y="738.817">&#160;&#160;&#160;</text><text fill="#000000" font-family="sans-serif" font-size="20" lengthAdjust="spacing" textLength="235.3711" x="166.2531" y="738.817">Top-level tools/services</text><rect fill="#FFBA53" height="23.2813" style="stroke:none;stroke-width:1;" width="52.4414" x="407.9816" y="720.2525"/><text fill="#000000" font-family="sans-serif" font-size="20" lengthAdjust="spacing" textLength="19.0723" x="407.9816" y="738.817">&#160;&#160;&#160;</text><text fill="#000000" font-family="sans-serif" font-size="20" lengthAdjust="spacing" textLength="160" x="466.7804" y="738.817">SGX Application</text><rect fill="#D6E9F8" height="23.2813" style="stroke:none;stroke-width:1;" width="52.4414" x="747.3957" y="720.2525"/><text fill="#000000" font-family="sans-serif" font-size="20" lengthAdjust="spacing" textLength="19.0723" x="747.3957" y="738.817">&#160;&#160;&#160;</text><text fill="#000000" font-family="sans-serif" font-size="20" lengthAdjust="spacing" textLength="200.9277" x="806.1945" y="738.817">Core DCAP Libraries</text><rect fill="#FFFFFF" height="23.2813" style="stroke:none;stroke-width:1;" width="906.0254" x="107.4543" y="743.5338"/><rect fill="#FFFFFF" height="23.2813" style="stroke:none;stroke-width:1;" width="52.4414" x="107.4543" y="743.5338"/><text fill="#000000" font-family="sans-serif" font-size="20" lengthAdjust="spacing" textLength="19.0723" x="107.4543" y="762.0982">&#160;&#160;&#160;</text><text fill="#000000" font-family="sans-serif" font-size="20" lengthAdjust="spacing" textLength="6.3574" x="159.8957" y="762.0982">&#160;</text><rect fill="#D2ECD2" height="23.2813" style="stroke:none;stroke-width:1;" width="52.4414" x="407.9816" y="743.5338"/><text fill="#000000" font-family="sans-serif" font-size="20" lengthAdjust="spacing" textLength="19.0723" x="407.9816" y="762.0982">&#160;&#160;&#160;</text><text fill="#000000" font-family="sans-serif" font-size="20" lengthAdjust="spacing" textLength="125.4102" x="466.7804" y="762.0982">AE  Libraries</text><rect fill="#FFFFFF" height="64.0234" style="stroke:none;stroke-width:1;" width="906.0254" x="107.4543" y="766.815"/><text fill="#000000" font-family="sans-serif" font-size="55" lengthAdjust="spacing" textLength="46.084" x="107.4543" y="817.8672">&#8594;</text><text fill="#000000" font-family="sans-serif" font-size="20" lengthAdjust="spacing" textLength="6.3574" x="153.5382" y="826.1216">&#160;</text><text fill="#000000" font-family="sans-serif" font-size="20" lengthAdjust="spacing" textLength="6.3574" x="159.8957" y="785.3795">&#160;</text><text fill="#000000" font-family="sans-serif" font-size="20" lengthAdjust="spacing" textLength="177.7539" x="159.8957" y="808.6607">Hard dependency</text><text fill="#000000" font-family="sans-serif" font-size="55" lengthAdjust="spacing" textLength="46.084" x="407.9816" y="817.8672">&#8674;</text><text fill="#000000" font-family="sans-serif" font-size="20" lengthAdjust="spacing" textLength="6.3574" x="454.0656" y="826.1216">&#160;</text><text fill="#000000" font-family="sans-serif" font-size="20" lengthAdjust="spacing" textLength="6.3574" x="460.423" y="785.3795">&#160;</text><text fill="#000000" font-family="sans-serif" font-size="20" lengthAdjust="spacing" textLength="280.6152" x="460.423" y="808.6607">Recommended dependency</text><text fill="#000000" font-family="sans-serif" font-size="55" lengthAdjust="spacing" textLength="46.084" x="747.3957" y="817.8672">&#10513;</text><text fill="#000000" font-family="sans-serif" font-size="20" lengthAdjust="spacing" textLength="6.3574" x="793.4796" y="826.1216">&#160;</text><text fill="#000000" font-family="sans-serif" font-size="20" lengthAdjust="spacing" textLength="6.3574" x="799.8371" y="785.3795">&#160;</text><text fill="#000000" font-family="sans-serif" font-size="20" lengthAdjust="spacing" textLength="151.2695" x="799.8371" y="808.6607">Optional usage</text><line style="stroke:#FFFFFF;stroke-width:1;" x1="107.4543" x2="1013.4796" y1="720.2525" y2="720.2525"/><line style="stroke:#FFFFFF;stroke-width:1;" x1="107.4543" x2="1013.4796" y1="743.5338" y2="743.5338"/><line style="stroke:#FFFFFF;stroke-width:1;" x1="107.4543" x2="1013.4796" y1="766.815" y2="766.815"/><line style="stroke:#FFFFFF;stroke-width:1;" x1="107.4543" x2="1013.4796" y1="830.8384" y2="830.8384"/><line style="stroke:#FFFFFF;stroke-width:1;" x1="107.4543" x2="107.4543" y1="720.2525" y2="830.8384"/><line style="stroke:#FFFFFF;stroke-width:1;" x1="159.8957" x2="159.8957" y1="720.2525" y2="830.8384"/><line style="stroke:#FFFFFF;stroke-width:1;" x1="407.9816" x2="407.9816" y1="720.2525" y2="830.8384"/><line style="stroke:#FFFFFF;stroke-width:1;" x1="460.423" x2="460.423" y1="720.2525" y2="830.8384"/><line style="stroke:#FFFFFF;stroke-width:1;" x1="747.3957" x2="747.3957" y1="720.2525" y2="830.8384"/><line style="stroke:#FFFFFF;stroke-width:1;" x1="799.8371" x2="799.8371" y1="720.2525" y2="830.8384"/><line style="stroke:#FFFFFF;stroke-width:1;" x1="1013.4796" x2="1013.4796" y1="720.2525" y2="830.8384"/></g><?plantuml-src ZLPDR-Cs4BtpLn3RmnwwscrSf6WAHq0sSTf3W1QRBL2WBGHQ7CjiP58XwMpIJVzxPoXAeMN5bYuIP-Oz3kTBN2i9t7cmOFnJ0ypTATq8ApPyASgxofgjbfUcDfPxAxH35MYVMDLA0m6viNvj4eLR2sc-A5tnbQWTiBVy_FoSNy4A0VpMFzNWICBcZhvpvkNZHTC41V_AE3uV1mvyirejnUdtgrMhDLQ2RJKVQpGDqckZ_Qtw5_ZiE_OVywRvR4nza7GHdd5AFy9P6WitQdcGy-g7nTdrZvFT5CS9PulBgzbamlc76DGOzS-cuJVY2Mo8k3SL-3KkQ3CBfHUwmgtVkEenio9pO1zK2M-uS1n5XHL55F7vF8redk_Z1RZD7WC99t9uW4mqZHNAYJhpQ1POK5pqueB4ntZaOtPVkHOi7mlydk1zKzvbIcOMl5Nma3f0nq1jeMI1sbSymCZ7W5zYaN1CgXL8v9BO9nlMQabxob8qcOILsDO-ks_QxL1NaAA8YW8Lk5zQUxZVmFl0r9IbwpqE52GvY8sEh45WORb-_xYU0crAo6fJgR87ewG8aYdmhVKlsz9Y2WXqMOi7o4gpsHZTmwEuQCLJYB3ajpYLUWQiTrfFXEBq-sBiNOgEecC4LAB2Ut2-0rEXjfA3MEhtw01nj676fwEXp1FLA_6F9Ngn62tGP3ZidrS0fJhi8u1oZEpYS8WGWXqLiz8XbPm4zF8U-i0YZDO7W1ICQelHemdITpv-KwU-_5qGbFIfraYWZ6v_Hc_vBqfAqE_uFrlCmWfdR9YaRAIqikpFTJ3-Eu_HE6QL76C2eP8iBSSXqKkXiJQYGuFX_1WnsvaHhz34CK0H-mJaAMW9aajew4ENM3viR3g-Vv_t_NpG81xmLPiOsmDgZ1HbJjY1MrtwiopVRI-sEwAYldLrNvKaDmodpdmtVMpmh-oiqkEDgxiqTl-fgDffOxRNrnr1Kb3Z1lrXnatwIXj7Tp4Pr-xLMEoh6wWm3Q6bagjY4ExTRQx3isUNtcXOA-9BuxtPC3QFe7VndJ_FupqknpduJFUTh8O7g3cLYViGW-vGDUzlaQtfxSz_S9mCjIe5ZG6EJEtjhLM77_dLvSLloR1y7jq_VWKKaOGRMxl4KNiCxl2aFvsUvlFVlvsTdCrolC6X94VmNtgti9_um7gnQptQf4FGsSd93kZNXWulQhvreW9q4M5jpFy7?></g></svg>