<?plantuml 1.2026.3beta3?><svg xmlns="http://www.w3.org/2000/svg" xmlns:xlink="http://www.w3.org/1999/xlink" contentStyleType="text/css" data-diagram-type="DESCRIPTION" height="1269px" preserveAspectRatio="none" style="width:1285px;height:1269px;" version="1.1" viewBox="0 0 1285 1269" width="1285px" zoomAndPan="magnify"><defs/><g><!--entity tee_appraisal_tool--><g class="entity" data-qualified-name="tee_appraisal_tool" data-source-line="36" id="ent0002"><rect fill="#EEEEEE" height="43.2813" rx="2.5" ry="2.5" style="stroke:#181818;stroke-width:0.5;" width="196.6699" x="449.41" y="7"/><text fill="#000000" font-family="sans-serif" font-size="20" lengthAdjust="spacing" textLength="176.6699" x="459.41" y="35.5645">tee-appraisal-tool</text></g><!--entity sgx_ra_service--><g class="entity" data-qualified-name="sgx_ra_service" data-source-line="37" id="ent0003"><rect fill="#EEEEEE" height="43.2813" rx="2.5" ry="2.5" style="stroke:#181818;stroke-width:0.5;" width="161.5039" x="815.99" y="7"/><text fill="#000000" font-family="sans-serif" font-size="20" lengthAdjust="spacing" textLength="141.5039" x="825.99" y="35.5645">sgx-ra-service</text></g><!--entity sgx_pck_id_ret_tool--><g class="entity" data-qualified-name="sgx_pck_id_ret_tool" data-source-line="38" id="ent0004"><rect fill="#EEEEEE" height="43.2813" rx="2.5" ry="2.5" style="stroke:#181818;stroke-width:0.5;" width="259.3164" x="1012.09" y="7"/><text fill="#000000" font-family="sans-serif" font-size="20" lengthAdjust="spacing" textLength="239.3164" x="1022.09" y="35.5645">sgx-pck-id-retrieval-tool</text></g><!--entity sgx_app--><g class="entity" data-qualified-name="sgx_app" data-source-line="39" id="ent0005"><rect fill="#FFBA53" height="43.2813" rx="2.5" ry="2.5" style="stroke:#181818;stroke-width:0.5;" width="99.8145" x="680.84" y="7"/><text fill="#000000" font-family="sans-serif" font-size="20" lengthAdjust="spacing" textLength="79.8145" x="690.84" y="35.5645">sgx-app</text></g><!--entity lib_dcap_default_qpl--><g class="entity" data-qualified-name="lib_dcap_default_qpl" data-source-line="43" id="ent0006"><rect fill="#D6E9F8" height="43.2813" rx="2.5" ry="2.5" style="stroke:#181818;stroke-width:0.5;" width="250.3711" x="268.56" y="1039.81"/><text fill="#000000" font-family="sans-serif" font-size="20" lengthAdjust="spacing" textLength="230.3711" x="278.56" y="1068.3745">libsgx-dcap-default-qpl</text></g><!--entity sgx_dcap_pccs--><g class="entity" data-qualified-name="sgx_dcap_pccs" data-source-line="44" id="ent0007"><rect fill="#D6E9F8" height="43.2813" rx="2.5" ry="2.5" style="stroke:#181818;stroke-width:0.5;" width="163.1348" x="554.18" y="1039.81"/><text fill="#000000" font-family="sans-serif" font-size="20" lengthAdjust="spacing" textLength="143.1348" x="564.18" y="1068.3745">sgx-dcap-pccs</text></g><!--entity lib_headers--><g class="entity" data-qualified-name="lib_headers" data-source-line="45" id="ent0008"><rect fill="#D6E9F8" height="43.2813" rx="2.5" ry="2.5" style="stroke:#181818;stroke-width:0.5;" width="166.8555" x="752.32" y="1039.81"/><text fill="#000000" font-family="sans-serif" font-size="20" lengthAdjust="spacing" textLength="146.8555" x="762.32" y="1068.3745">libsgx-headers</text></g><!--entity lib_uae_service--><g class="entity" data-qualified-name="lib_uae_service" data-source-line="46" id="ent0009"><rect fill="#D6E9F8" height="43.2813" rx="2.5" ry="2.5" style="stroke:#181818;stroke-width:0.5;" width="202.0703" x="147.71" y="110.28"/><text fill="#000000" font-family="sans-serif" font-size="20" lengthAdjust="spacing" textLength="182.0703" x="157.71" y="138.8445">libsgx-uae-service</text></g><!--entity lib_dcap_ql--><g class="entity" data-qualified-name="lib_dcap_ql" data-source-line="47" id="ent0010"><rect fill="#D6E9F8" height="43.2813" rx="2.5" ry="2.5" style="stroke:#181818;stroke-width:0.5;" width="160.0879" x="455.7" y="110.28"/><text fill="#000000" font-family="sans-serif" font-size="20" lengthAdjust="spacing" textLength="140.0879" x="465.7" y="138.8445">libsgx-dcap-ql</text></g><!--entity lib_quote_ex--><g class="entity" data-qualified-name="lib_quote_ex" data-source-line="48" id="ent0011"><rect fill="#D6E9F8" height="43.2813" rx="2.5" ry="2.5" style="stroke:#181818;stroke-width:0.5;" width="175.0879" x="166.2" y="213.56"/><text fill="#000000" font-family="sans-serif" font-size="20" lengthAdjust="spacing" textLength="155.0879" x="176.2" y="242.1245">libsgx-quote-ex</text></g><!--entity lib_dcap_quote_verify--><g class="entity" data-qualified-name="lib_dcap_quote_verify" data-source-line="49" id="ent0012"><rect fill="#D6E9F8" height="43.2813" rx="2.5" ry="2.5" style="stroke:#181818;stroke-width:0.5;" width="263.6035" x="586.94" y="213.56"/><text fill="#000000" font-family="sans-serif" font-size="20" lengthAdjust="spacing" textLength="243.6035" x="596.94" y="242.1245">libsgx-dcap-quote-verify</text></g><!--entity lib_pce_logic--><g class="entity" data-qualified-name="lib_pce_logic" data-source-line="50" id="ent0013"><rect fill="#D6E9F8" height="43.2813" rx="2.5" ry="2.5" style="stroke:#181818;stroke-width:0.5;" width="176.2305" x="311.63" y="626.68"/><text fill="#000000" font-family="sans-serif" font-size="20" lengthAdjust="spacing" textLength="156.2305" x="321.63" y="655.2445">libsgx-pce-logic</text></g><!--entity lib_qe3_logic--><g class="entity" data-qualified-name="lib_qe3_logic" data-source-line="51" id="ent0014"><rect fill="#D6E9F8" height="43.2813" rx="2.5" ry="2.5" style="stroke:#181818;stroke-width:0.5;" width="177.959" x="527.76" y="626.68"/><text fill="#000000" font-family="sans-serif" font-size="20" lengthAdjust="spacing" textLength="157.959" x="537.76" y="655.2445">libsgx-qe3-logic</text></g><!--entity lib_urts--><g class="entity" data-qualified-name="lib_urts" data-source-line="52" id="ent0015"><rect fill="#D6E9F8" height="43.2813" rx="2.5" ry="2.5" style="stroke:#181818;stroke-width:0.5;" width="125.1367" x="886.18" y="729.97"/><text fill="#000000" font-family="sans-serif" font-size="20" lengthAdjust="spacing" textLength="105.1367" x="896.18" y="758.5345">libsgx-urts</text></g><!--entity lib_enclave_common--><g class="entity" data-qualified-name="lib_enclave_common" data-source-line="53" id="ent0016"><rect fill="#D6E9F8" height="43.2813" rx="2.5" ry="2.5" style="stroke:#181818;stroke-width:0.5;" width="258.2324" x="450.63" y="833.25"/><text fill="#000000" font-family="sans-serif" font-size="20" lengthAdjust="spacing" textLength="238.2324" x="460.63" y="861.8145">libsgx-enclave-common</text></g><!--entity lib_ra_uefi--><g class="entity" data-qualified-name="lib_ra_uefi" data-source-line="54" id="ent0017"><rect fill="#D6E9F8" height="43.2813" rx="2.5" ry="2.5" style="stroke:#181818;stroke-width:0.5;" width="151.25" x="1048.12" y="110.28"/><text fill="#000000" font-family="sans-serif" font-size="20" lengthAdjust="spacing" textLength="131.25" x="1058.12" y="138.8445">libsgx-ra-uefi</text></g><!--entity lib_ra_network--><g class="entity" data-qualified-name="lib_ra_network" data-source-line="55" id="ent0018"><rect fill="#D6E9F8" height="43.2813" rx="2.5" ry="2.5" style="stroke:#181818;stroke-width:0.5;" width="194.8926" x="818.3" y="110.28"/><text fill="#000000" font-family="sans-serif" font-size="20" lengthAdjust="spacing" textLength="174.8926" x="828.3" y="138.8445">libsgx-ra-network</text></g><!--entity plugin_quote_ex--><g class="entity" data-qualified-name="plugin_quote_ex" data-source-line="58" id="ent0019"><rect fill="#F7E7B2" height="43.2813" rx="2.5" ry="2.5" style="stroke:#181818;stroke-width:0.5;" width="305.8398" x="86.82" y="316.84"/><text fill="#000000" font-family="sans-serif" font-size="20" lengthAdjust="spacing" textLength="285.8398" x="96.82" y="345.4045">libsgx-aesm-quote-ex-plugin</text></g><!--entity plugin_ecdsa--><g class="entity" data-qualified-name="plugin_ecdsa" data-source-line="59" id="ent0020"><rect fill="#F7E7B2" height="43.2813" rx="2.5" ry="2.5" style="stroke:#181818;stroke-width:0.5;" width="275.4004" x="102.04" y="420.12"/><text fill="#000000" font-family="sans-serif" font-size="20" lengthAdjust="spacing" textLength="255.4004" x="112.04" y="448.6845">libsgx-aesm-ecdsa-plugin</text></g><!--entity plugin_pce--><g class="entity" data-qualified-name="plugin_pce" data-source-line="60" id="ent0021"><rect fill="#F7E7B2" height="43.2813" rx="2.5" ry="2.5" style="stroke:#181818;stroke-width:0.5;" width="252.7246" x="157.38" y="523.4"/><text fill="#000000" font-family="sans-serif" font-size="20" lengthAdjust="spacing" textLength="232.7246" x="167.38" y="551.9645">libsgx-aesm-pce-plugin</text></g><!--entity sgx_aesm_service--><g class="entity" data-qualified-name="sgx_aesm_service" data-source-line="61" id="ent0022"><rect fill="#F7E7B2" height="43.2813" rx="2.5" ry="2.5" style="stroke:#181818;stroke-width:0.5;" width="195.4883" x="7" y="626.68"/><text fill="#000000" font-family="sans-serif" font-size="20" lengthAdjust="spacing" textLength="175.4883" x="17" y="655.2445">sgx-aesm-service</text></g><!--entity ae_pce--><g class="entity" data-qualified-name="ae_pce" data-source-line="64" id="ent0023"><rect fill="#D2ECD2" height="43.2813" rx="2.5" ry="2.5" style="stroke:#181818;stroke-width:0.5;" width="153.75" x="178.87" y="936.53"/><text fill="#000000" font-family="sans-serif" font-size="20" lengthAdjust="spacing" textLength="133.75" x="188.87" y="965.0945">libsgx-ae-pce</text></g><!--entity ae_qe3--><g class="entity" data-qualified-name="ae_qe3" data-source-line="65" id="ent0024"><rect fill="#D2ECD2" height="43.2813" rx="2.5" ry="2.5" style="stroke:#181818;stroke-width:0.5;" width="155.4785" x="368" y="936.53"/><text fill="#000000" font-family="sans-serif" font-size="20" lengthAdjust="spacing" textLength="135.4785" x="378" y="965.0945">libsgx-ae-qe3</text></g><!--entity ae_id_enclave--><g class="entity" data-qualified-name="ae_id_enclave" data-source-line="66" id="ent0025"><rect fill="#D2ECD2" height="43.2813" rx="2.5" ry="2.5" style="stroke:#181818;stroke-width:0.5;" width="221.1523" x="748.17" y="936.53"/><text fill="#000000" font-family="sans-serif" font-size="20" lengthAdjust="spacing" textLength="201.1523" x="758.17" y="965.0945">libsgx-ae-id-enclave</text></g><!--entity ae_qve--><g class="entity" data-qualified-name="ae_qve" data-source-line="67" id="ent0026"><rect fill="#D2ECD2" height="43.2813" rx="2.5" ry="2.5" style="stroke:#181818;stroke-width:0.5;" width="154.5898" x="558.45" y="936.53"/><text fill="#000000" font-family="sans-serif" font-size="20" lengthAdjust="spacing" textLength="134.5898" x="568.45" y="965.0945">libsgx-ae-qve</text></g><!--link lib_enclave_common to ae_qe3--><!--link lib_enclave_common to ae_qve--><!--link lib_enclave_common to ae_id_enclave--><!--link lib_enclave_common to ae_pce--><!--link ae_qve to lib_dcap_default_qpl--><!--link ae_qve to sgx_dcap_pccs--><!--link ae_qve to lib_headers--><!--link sgx_app to lib_dcap_ql--><g class="link" data-entity-1="ent0005" data-entity-2="ent0010" data-link-type="dependency" data-source-line="80" id="lnk34"><path d="M700.8,50.58 C700.8,80.94 700.8,132.09 700.8,132.09 C700.8,132.09 663.91,132.09 621.85,132.09" fill="none" id="sgx_app-to-lib_dcap_ql" style="stroke:#181818;stroke-width:1;stroke-dasharray:1,3;"/><polygon fill="#181818" points="615.85,132.09,624.85,136.09,620.85,132.09,624.85,128.09,615.85,132.09" style="stroke:#181818;stroke-width:1;"/></g><!--link sgx_app to lib_quote_ex--><g class="link" data-entity-1="ent0005" data-entity-2="ent0011" data-link-type="dependency" data-source-line="81" id="lnk35"><path d="M720.76,50.61 C720.76,95.61 720.76,194.09 720.76,194.09 C720.76,194.09 282.93,194.09 282.93,194.09 C282.93,194.09 282.93,197.43 282.93,207.2" fill="none" id="sgx_app-to-lib_quote_ex" style="stroke:#181818;stroke-width:1;stroke-dasharray:1,3;"/><polygon fill="#181818" points="282.93,213.2,286.93,204.2,282.93,208.2,278.93,204.2,282.93,213.2" style="stroke:#181818;stroke-width:1;"/></g><!--link sgx_app to lib_dcap_quote_verify--><g class="link" data-entity-1="ent0005" data-entity-2="ent0012" data-link-type="dependency" data-source-line="82" id="lnk36"><path d="M740.73,50.74 C740.73,90.5 740.73,167.61 740.73,207.25" fill="none" id="sgx_app-to-lib_dcap_quote_verify" style="stroke:#181818;stroke-width:1;stroke-dasharray:1,3;"/><polygon fill="#181818" points="740.73,213.25,744.73,204.25,740.73,208.25,736.73,204.25,740.73,213.25" style="stroke:#181818;stroke-width:1;"/></g><!--link lib_dcap_ql to lib_quote_ex--><g class="link" data-entity-1="ent0010" data-entity-2="ent0011" data-link-type="dependency" data-source-line="85" id="lnk37"><path d="M466.42,154.01 C466.42,184.59 466.42,236.09 466.42,236.09 C466.42,236.09 406.29,236.09 347.78,236.09" fill="none" id="lib_dcap_ql-to-lib_quote_ex" style="stroke:#181818;stroke-width:1;stroke-dasharray:7,7;"/><polygon fill="#181818" points="341.78,236.09,350.78,240.09,346.78,236.09,350.78,232.09,341.78,236.09" style="stroke:#181818;stroke-width:1;"/></g><!--link lib_dcap_ql to lib_dcap_quote_verify--><g class="link" data-entity-1="ent0010" data-entity-2="ent0012" data-link-type="dependency" data-source-line="86" id="lnk38"><path d="M601.37,153.82 C601.37,171.35 601.37,189.81 601.37,207.33" fill="none" id="lib_dcap_ql-to-lib_dcap_quote_verify" style="stroke:#181818;stroke-width:1;stroke-dasharray:7,7;"/><polygon fill="#181818" points="601.37,213.33,605.37,204.33,601.37,208.33,597.37,204.33,601.37,213.33" style="stroke:#181818;stroke-width:1;"/></g><!--link lib_quote_ex to plugin_quote_ex--><g class="link" data-entity-1="ent0011" data-entity-2="ent0019" data-link-type="dependency" data-source-line="87" id="lnk39"><path d="M253.74,257.1 C253.74,274.63 253.74,293.09 253.74,310.61" fill="none" id="lib_quote_ex-to-plugin_quote_ex" style="stroke:#181818;stroke-width:1;stroke-dasharray:7,7;"/><polygon fill="#181818" points="253.74,316.61,257.74,307.61,253.74,311.61,249.74,307.61,253.74,316.61" style="stroke:#181818;stroke-width:1;"/></g><!--link lib_dcap_quote_verify to lib_urts--><g class="link" data-entity-1="ent0012" data-entity-2="ent0015" data-link-type="dependency" data-source-line="88" id="lnk40"><path d="M824.95,257.11 C824.95,354.71 824.95,745.09 824.95,745.09 C824.95,745.09 849.18,745.09 879.76,745.09" fill="none" id="lib_dcap_quote_verify-to-lib_urts" style="stroke:#181818;stroke-width:1;stroke-dasharray:7,7;"/><polygon fill="#181818" points="885.76,745.09,876.76,741.09,880.76,745.09,876.76,749.09,885.76,745.09" style="stroke:#181818;stroke-width:1;"/></g><!--link lib_dcap_quote_verify to ae_qve--><g class="link" data-entity-1="ent0012" data-entity-2="ent0026" data-link-type="dependency" data-source-line="89" id="lnk41"><path d="M727.6,257.02 C727.6,376.99 727.6,951.09 727.6,951.09 C727.6,951.09 727.86,951.09 719.25,951.09" fill="none" id="lib_dcap_quote_verify-to-ae_qve" style="stroke:#181818;stroke-width:1;stroke-dasharray:7,7;"/><polygon fill="#181818" points="713.25,951.09,722.25,955.09,718.25,951.09,722.25,947.09,713.25,951.09" style="stroke:#181818;stroke-width:1;"/></g><!--link sgx_pck_id_ret_tool to lib_urts--><g class="link" data-entity-1="ent0004" data-entity-2="ent0015" data-link-type="dependency" data-source-line="90" id="lnk42"><path d="M1021.92,50.68 C1021.92,171.93 1021.92,752.09 1021.92,752.09 C1021.92,752.09 1023.9,752.09 1017.75,752.09" fill="none" id="sgx_pck_id_ret_tool-to-lib_urts" style="stroke:#181818;stroke-width:1;stroke-dasharray:7,7;"/><polygon fill="#181818" points="1011.75,752.09,1020.75,756.09,1016.75,752.09,1020.75,748.09,1011.75,752.09" style="stroke:#181818;stroke-width:1;"/></g><!--link sgx_pck_id_ret_tool to lib_ra_uefi--><g class="link" data-entity-1="ent0004" data-entity-2="ent0017" data-link-type="dependency" data-source-line="91" id="lnk43"><path d="M1148.95,50.54 C1148.95,68.07 1148.95,86.53 1148.95,104.05" fill="none" id="sgx_pck_id_ret_tool-to-lib_ra_uefi" style="stroke:#181818;stroke-width:1;stroke-dasharray:7,7;"/><polygon fill="#181818" points="1148.95,110.05,1152.95,101.05,1148.95,105.05,1144.95,101.05,1148.95,110.05" style="stroke:#181818;stroke-width:1;"/></g><!--link sgx_pck_id_ret_tool to ae_pce--><g class="link" data-entity-1="ent0004" data-entity-2="ent0023" data-link-type="dependency" data-source-line="92" id="lnk44"><path d="M1030.65,50.6 C1030.65,176.79 1030.65,804.09 1030.65,804.09 C1030.65,804.09 322.12,804.09 322.12,804.09 C322.12,804.09 322.12,887.49 322.12,930.09" fill="none" id="sgx_pck_id_ret_tool-to-ae_pce" style="stroke:#181818;stroke-width:1;stroke-dasharray:7,7;"/><polygon fill="#181818" points="322.12,936.09,326.12,927.09,322.12,931.09,318.12,927.09,322.12,936.09" style="stroke:#181818;stroke-width:1;"/></g><!--link sgx_pck_id_ret_tool to ae_id_enclave--><g class="link" data-entity-1="ent0004" data-entity-2="ent0025" data-link-type="dependency" data-source-line="93" id="lnk45"><path d="M1039.39,50.72 C1039.39,191.62 1039.39,959.09 1039.39,959.09 C1039.39,959.09 1013.09,959.09 975.8,959.09" fill="none" id="sgx_pck_id_ret_tool-to-ae_id_enclave" style="stroke:#181818;stroke-width:1;stroke-dasharray:7,7;"/><polygon fill="#181818" points="969.8,959.09,978.8,963.09,974.8,959.09,978.8,955.09,969.8,959.09" style="stroke:#181818;stroke-width:1;"/></g><!--link lib_dcap_ql to lib_pce_logic--><g class="link" data-entity-1="ent0010" data-entity-2="ent0013" data-link-type="dependency" data-source-line="96" id="lnk46"><path d="M477.14,153.78 C477.14,238.15 477.14,536.08 477.14,620.46" fill="none" id="lib_dcap_ql-to-lib_pce_logic" style="stroke:#181818;stroke-width:1;"/><polygon fill="#181818" points="477.14,626.46,481.14,617.46,477.14,621.46,473.14,617.46,477.14,626.46" style="stroke:#181818;stroke-width:1;"/></g><!--link lib_dcap_ql to lib_qe3_logic--><g class="link" data-entity-1="ent0010" data-entity-2="ent0014" data-link-type="dependency" data-source-line="97" id="lnk47"><path d="M557.35,153.78 C557.35,238.15 557.35,536.08 557.35,620.46" fill="none" id="lib_dcap_ql-to-lib_qe3_logic" style="stroke:#181818;stroke-width:1;"/><polygon fill="#181818" points="557.35,626.46,561.35,617.46,557.35,621.46,553.35,617.46,557.35,626.46" style="stroke:#181818;stroke-width:1;"/></g><!--link sgx_app to lib_urts--><g class="link" data-entity-1="ent0005" data-entity-2="ent0015" data-link-type="dependency" data-source-line="98" id="lnk48"><path d="M760.69,50.73 C760.69,91.42 760.69,174.09 760.69,174.09 C760.69,174.09 969.6,174.09 969.6,174.09 C969.6,174.09 969.6,618.18 969.6,723.67" fill="none" id="sgx_app-to-lib_urts" style="stroke:#181818;stroke-width:1;"/><polygon fill="#181818" points="969.6,729.67,973.6,720.67,969.6,724.67,965.6,720.67,969.6,729.67" style="stroke:#181818;stroke-width:1;"/></g><!--link lib_pce_logic to lib_urts--><g class="link" data-entity-1="ent0013" data-entity-2="ent0015" data-link-type="dependency" data-source-line="99" id="lnk49"><path d="M469.24,670.21 C469.24,702.49 469.24,759.09 469.24,759.09 C469.24,759.09 750.08,759.09 880.06,759.09" fill="none" id="lib_pce_logic-to-lib_urts" style="stroke:#181818;stroke-width:1;"/><polygon fill="#181818" points="886.06,759.09,877.06,755.09,881.06,759.09,877.06,763.09,886.06,759.09" style="stroke:#181818;stroke-width:1;"/></g><!--link lib_pce_logic to ae_pce--><g class="link" data-entity-1="ent0013" data-entity-2="ent0023" data-link-type="dependency" data-source-line="100" id="lnk50"><path d="M316.88,670.11 C316.88,727 316.88,873.54 316.88,930.4" fill="none" id="lib_pce_logic-to-ae_pce" style="stroke:#181818;stroke-width:1;"/><polygon fill="#181818" points="316.88,936.4,320.88,927.4,316.88,931.4,312.88,927.4,316.88,936.4" style="stroke:#181818;stroke-width:1;"/></g><!--link lib_qe3_logic to lib_urts--><g class="link" data-entity-1="ent0014" data-entity-2="ent0015" data-link-type="dependency" data-source-line="101" id="lnk51"><path d="M705.91,642.09 C797.85,642.09 927.89,642.09 927.89,642.09 C927.89,642.09 927.89,691.75 927.89,723.71" fill="none" id="lib_qe3_logic-to-lib_urts" style="stroke:#181818;stroke-width:1;"/><polygon fill="#181818" points="927.89,729.71,931.89,720.71,927.89,724.71,923.89,720.71,927.89,729.71" style="stroke:#181818;stroke-width:1;"/></g><!--link lib_qe3_logic to ae_qe3--><g class="link" data-entity-1="ent0014" data-entity-2="ent0024" data-link-type="dependency" data-source-line="102" id="lnk52"><path d="M616.74,670.28 C616.74,684.39 616.74,700.09 616.74,700.09 C616.74,700.09 409.32,700.09 409.32,700.09 C409.32,700.09 409.32,867.75 409.32,930.16" fill="none" id="lib_qe3_logic-to-ae_qe3" style="stroke:#181818;stroke-width:1;"/><polygon fill="#181818" points="409.32,936.16,413.32,927.16,409.32,931.16,405.32,927.16,409.32,936.16" style="stroke:#181818;stroke-width:1;"/></g><!--link lib_qe3_logic to ae_id_enclave--><g class="link" data-entity-1="ent0014" data-entity-2="ent0025" data-link-type="dependency" data-source-line="103" id="lnk53"><path d="M706.18,656.09 C752.45,656.09 799.36,656.09 799.36,656.09 C799.36,656.09 799.36,861.18 799.36,930.44" fill="none" id="lib_qe3_logic-to-ae_id_enclave" style="stroke:#181818;stroke-width:1;"/><polygon fill="#181818" points="799.36,936.44,803.36,927.44,799.36,931.44,795.36,927.44,799.36,936.44" style="stroke:#181818;stroke-width:1;"/></g><!--link lib_urts to lib_enclave_common--><g class="link" data-entity-1="ent0015" data-entity-2="ent0016" data-link-type="dependency" data-source-line="104" id="lnk54"><path d="M927.75,773.5 C927.75,801.97 927.75,848.09 927.75,848.09 C927.75,848.09 814.27,848.09 715.33,848.09" fill="none" id="lib_urts-to-lib_enclave_common" style="stroke:#181818;stroke-width:1;"/><polygon fill="#181818" points="709.33,848.09,718.33,852.09,714.33,848.09,718.33,844.09,709.33,848.09" style="stroke:#181818;stroke-width:1;"/></g><!--link lib_uae_service to lib_quote_ex--><g class="link" data-entity-1="ent0009" data-entity-2="ent0011" data-link-type="dependency" data-source-line="105" id="lnk55"><path d="M224.56,153.82 C224.56,171.35 224.56,189.81 224.56,207.33" fill="none" id="lib_uae_service-to-lib_quote_ex" style="stroke:#181818;stroke-width:1;"/><polygon fill="#181818" points="224.56,213.33,228.56,204.33,224.56,208.33,220.56,204.33,224.56,213.33" style="stroke:#181818;stroke-width:1;"/></g><!--link plugin_quote_ex to plugin_ecdsa--><g class="link" data-entity-1="ent0019" data-entity-2="ent0020" data-link-type="dependency" data-source-line="106" id="lnk56"><path d="M239.74,360.38 C239.74,377.91 239.74,396.37 239.74,413.89" fill="none" id="plugin_quote_ex-to-plugin_ecdsa" style="stroke:#181818;stroke-width:1;"/><polygon fill="#181818" points="239.74,419.89,243.74,410.89,239.74,414.89,235.74,410.89,239.74,419.89" style="stroke:#181818;stroke-width:1;"/></g><!--link plugin_quote_ex to sgx_aesm_service--><g class="link" data-entity-1="ent0019" data-entity-2="ent0022" data-link-type="dependency" data-source-line="107" id="lnk57"><path d="M94.43,360.27 C94.43,417.16 94.43,563.7 94.43,620.56" fill="none" id="plugin_quote_ex-to-sgx_aesm_service" style="stroke:#181818;stroke-width:1;"/><polygon fill="#181818" points="94.43,626.56,98.43,617.56,94.43,621.56,90.43,617.56,94.43,626.56" style="stroke:#181818;stroke-width:1;"/></g><!--link plugin_ecdsa to plugin_pce--><g class="link" data-entity-1="ent0020" data-entity-2="ent0021" data-link-type="dependency" data-source-line="108" id="lnk58"><path d="M267.41,463.67 C267.41,481.19 267.41,499.65 267.41,517.17" fill="none" id="plugin_ecdsa-to-plugin_pce" style="stroke:#181818;stroke-width:1;"/><polygon fill="#181818" points="267.41,523.17,271.41,514.17,267.41,518.17,263.41,514.17,267.41,523.17" style="stroke:#181818;stroke-width:1;"/></g><!--link plugin_ecdsa to sgx_aesm_service--><g class="link" data-entity-1="ent0020" data-entity-2="ent0022" data-link-type="dependency" data-source-line="109" id="lnk59"><path d="M129.71,463.87 C129.71,503.63 129.71,580.74 129.71,620.38" fill="none" id="plugin_ecdsa-to-sgx_aesm_service" style="stroke:#181818;stroke-width:1;"/><polygon fill="#181818" points="129.71,626.38,133.71,617.38,129.71,621.38,125.71,617.38,129.71,626.38" style="stroke:#181818;stroke-width:1;"/></g><!--link plugin_pce to sgx_aesm_service--><g class="link" data-entity-1="ent0021" data-entity-2="ent0022" data-link-type="dependency" data-source-line="110" id="lnk60"><path d="M179.94,566.95 C179.94,584.47 179.94,602.93 179.94,620.45" fill="none" id="plugin_pce-to-sgx_aesm_service" style="stroke:#181818;stroke-width:1;"/><polygon fill="#181818" points="179.94,626.45,183.94,617.45,179.94,621.45,175.94,617.45,179.94,626.45" style="stroke:#181818;stroke-width:1;"/></g><!--link plugin_pce to lib_pce_logic--><g class="link" data-entity-1="ent0021" data-entity-2="ent0013" data-link-type="dependency" data-source-line="111" id="lnk61"><path d="M360.87,566.95 C360.87,584.47 360.87,602.93 360.87,620.45" fill="none" id="plugin_pce-to-lib_pce_logic" style="stroke:#181818;stroke-width:1;"/><polygon fill="#181818" points="360.87,626.45,364.87,617.45,360.87,621.45,356.87,617.45,360.87,626.45" style="stroke:#181818;stroke-width:1;"/></g><!--link plugin_pce to ae_pce--><g class="link" data-entity-1="ent0021" data-entity-2="ent0023" data-link-type="dependency" data-source-line="112" id="lnk62"><path d="M257.06,566.96 C257.06,638.53 257.06,858.81 257.06,930.3" fill="none" id="plugin_pce-to-ae_pce" style="stroke:#181818;stroke-width:1;"/><polygon fill="#181818" points="257.06,936.3,261.06,927.3,257.06,931.3,253.06,927.3,257.06,936.3" style="stroke:#181818;stroke-width:1;"/></g><!--link sgx_ra_service to lib_ra_uefi--><g class="link" data-entity-1="ent0003" data-entity-2="ent0017" data-link-type="dependency" data-source-line="113" id="lnk63"><path d="M924.43,50.58 C924.43,64.95 924.43,81.09 924.43,81.09 C924.43,81.09 1098.54,81.09 1098.54,81.09 C1098.54,81.09 1098.54,90.29 1098.54,104.07" fill="none" id="sgx_ra_service-to-lib_ra_uefi" style="stroke:#181818;stroke-width:1;"/><polygon fill="#181818" points="1098.54,110.07,1102.54,101.07,1098.54,105.07,1094.54,101.07,1098.54,110.07" style="stroke:#181818;stroke-width:1;"/></g><!--link sgx_ra_service to lib_ra_network--><g class="link" data-entity-1="ent0003" data-entity-2="ent0018" data-link-type="dependency" data-source-line="114" id="lnk64"><path d="M871.36,50.54 C871.36,68.07 871.36,86.53 871.36,104.05" fill="none" id="sgx_ra_service-to-lib_ra_network" style="stroke:#181818;stroke-width:1;"/><polygon fill="#181818" points="871.36,110.05,875.36,101.05,871.36,105.05,867.36,101.05,871.36,110.05" style="stroke:#181818;stroke-width:1;"/></g><g class="legend" data-source-line="120"><rect fill="#FFFFFF" height="147.8672" rx="7.5" ry="7.5" style="stroke:#000000;stroke-width:1;" width="916.0254" x="181.1905" y="1103.0913"/><text fill="#000000" font-family="sans-serif" font-size="20" lengthAdjust="spacing" textLength="6.3574" x="186.1905" y="1126.6557">&#160;</text><rect fill="#FFFFFF" height="23.2813" style="stroke:none;stroke-width:1;" width="906.0254" x="186.1905" y="1133.3725"/><rect fill="#EEEEEE" height="23.2813" style="stroke:none;stroke-width:1;" width="52.4414" x="186.1905" y="1133.3725"/><text fill="#000000" font-family="sans-serif" font-size="20" lengthAdjust="spacing" textLength="19.0723" x="186.1905" y="1151.937">&#160;&#160;&#160;</text><text fill="#000000" font-family="sans-serif" font-size="20" lengthAdjust="spacing" textLength="235.3711" x="244.9893" y="1151.937">Top-level tools/services</text><rect fill="#FFBA53" height="23.2813" style="stroke:none;stroke-width:1;" width="52.4414" x="486.7179" y="1133.3725"/><text fill="#000000" font-family="sans-serif" font-size="20" lengthAdjust="spacing" textLength="19.0723" x="486.7179" y="1151.937">&#160;&#160;&#160;</text><text fill="#000000" font-family="sans-serif" font-size="20" lengthAdjust="spacing" textLength="160" x="545.5167" y="1151.937">SGX Application</text><rect fill="#D6E9F8" height="23.2813" style="stroke:none;stroke-width:1;" width="52.4414" x="826.1319" y="1133.3725"/><text fill="#000000" font-family="sans-serif" font-size="20" lengthAdjust="spacing" textLength="19.0723" x="826.1319" y="1151.937">&#160;&#160;&#160;</text><text fill="#000000" font-family="sans-serif" font-size="20" lengthAdjust="spacing" textLength="200.9277" x="884.9307" y="1151.937">Core DCAP Libraries</text><rect fill="#FFFFFF" height="23.2813" style="stroke:none;stroke-width:1;" width="906.0254" x="186.1905" y="1156.6538"/><rect fill="#F7E7B2" height="23.2813" style="stroke:none;stroke-width:1;" width="52.4414" x="186.1905" y="1156.6538"/><text fill="#000000" font-family="sans-serif" font-size="20" lengthAdjust="spacing" textLength="19.0723" x="186.1905" y="1175.2182">&#160;&#160;&#160;</text><text fill="#000000" font-family="sans-serif" font-size="20" lengthAdjust="spacing" textLength="134.2676" x="244.9893" y="1175.2182">AESM Plugins</text><rect fill="#D2ECD2" height="23.2813" style="stroke:none;stroke-width:1;" width="52.4414" x="486.7179" y="1156.6538"/><text fill="#000000" font-family="sans-serif" font-size="20" lengthAdjust="spacing" textLength="19.0723" x="486.7179" y="1175.2182">&#160;&#160;&#160;</text><text fill="#000000" font-family="sans-serif" font-size="20" lengthAdjust="spacing" textLength="125.4102" x="545.5167" y="1175.2182">AE  Libraries</text><rect fill="#FFFFFF" height="64.0234" style="stroke:none;stroke-width:1;" width="906.0254" x="186.1905" y="1179.935"/><text fill="#000000" font-family="sans-serif" font-size="55" lengthAdjust="spacing" textLength="46.084" x="186.1905" y="1230.9872">&#8594;</text><text fill="#000000" font-family="sans-serif" font-size="20" lengthAdjust="spacing" textLength="6.3574" x="232.2745" y="1239.2416">&#160;</text><text fill="#000000" font-family="sans-serif" font-size="20" lengthAdjust="spacing" textLength="6.3574" x="238.6319" y="1198.4995">&#160;</text><text fill="#000000" font-family="sans-serif" font-size="20" lengthAdjust="spacing" textLength="177.7539" x="238.6319" y="1221.7807">Hard dependency</text><text fill="#000000" font-family="sans-serif" font-size="55" lengthAdjust="spacing" textLength="46.084" x="486.7179" y="1230.9872">&#8674;</text><text fill="#000000" font-family="sans-serif" font-size="20" lengthAdjust="spacing" textLength="6.3574" x="532.8018" y="1239.2416">&#160;</text><text fill="#000000" font-family="sans-serif" font-size="20" lengthAdjust="spacing" textLength="6.3574" x="539.1593" y="1198.4995">&#160;</text><text fill="#000000" font-family="sans-serif" font-size="20" lengthAdjust="spacing" textLength="280.6152" x="539.1593" y="1221.7807">Recommended dependency</text><text fill="#000000" font-family="sans-serif" font-size="55" lengthAdjust="spacing" textLength="46.084" x="826.1319" y="1230.9872">&#10513;</text><text fill="#000000" font-family="sans-serif" font-size="20" lengthAdjust="spacing" textLength="6.3574" x="872.2159" y="1239.2416">&#160;</text><text fill="#000000" font-family="sans-serif" font-size="20" lengthAdjust="spacing" textLength="6.3574" x="878.5733" y="1198.4995">&#160;</text><text fill="#000000" font-family="sans-serif" font-size="20" lengthAdjust="spacing" textLength="151.2695" x="878.5733" y="1221.7807">Optional usage</text><line style="stroke:#FFFFFF;stroke-width:1;" x1="186.1905" x2="1092.2159" y1="1133.3725" y2="1133.3725"/><line style="stroke:#FFFFFF;stroke-width:1;" x1="186.1905" x2="1092.2159" y1="1156.6538" y2="1156.6538"/><line style="stroke:#FFFFFF;stroke-width:1;" x1="186.1905" x2="1092.2159" y1="1179.935" y2="1179.935"/><line style="stroke:#FFFFFF;stroke-width:1;" x1="186.1905" x2="1092.2159" y1="1243.9584" y2="1243.9584"/><line style="stroke:#FFFFFF;stroke-width:1;" x1="186.1905" x2="186.1905" y1="1133.3725" y2="1243.9584"/><line style="stroke:#FFFFFF;stroke-width:1;" x1="238.6319" x2="238.6319" y1="1133.3725" y2="1243.9584"/><line style="stroke:#FFFFFF;stroke-width:1;" x1="486.7179" x2="486.7179" y1="1133.3725" y2="1243.9584"/><line style="stroke:#FFFFFF;stroke-width:1;" x1="539.1593" x2="539.1593" y1="1133.3725" y2="1243.9584"/><line style="stroke:#FFFFFF;stroke-width:1;" x1="826.1319" x2="826.1319" y1="1133.3725" y2="1243.9584"/><line style="stroke:#FFFFFF;stroke-width:1;" x1="878.5733" x2="878.5733" y1="1133.3725" y2="1243.9584"/><line style="stroke:#FFFFFF;stroke-width:1;" x1="1092.2159" x2="1092.2159" y1="1133.3725" y2="1243.9584"/></g><?plantuml-src bLTBRzms4BxhLn3f8OT6IRs1axfO2_1ZtHuSDAXJe41R25nff5Mj5RaajV6sJdvxXnGbKmzhcRsiD3FVnw7cHMwA58XK882f0uT0tXSLfu9koPeczxbWTPLUiP89eWIj9AgWKevLMLIWWOG9jM6EGcveoZuNLKuoMae8NfBpytDo3Ha2o9qwb22r95XA_Hm5Cd-uuDmeo7y1mT_bm87licnDJzzcMQDb8WNHQ2vBD3NI6rQfk-9V88iVWY-1OlmJO-KiwShyl2aJ9k2sMCzINhzRdTtyw4r9GMu_bdLULBEiD-zNxoyNty1wrCt5wkhQdt3vnaRAXl8Ju-IM7a2OC2gMWzhWYrvCGA9ebUFIBnH0I3aNj92q31L6umMXag0uxiIn5fFbqWrN5FLvC3r2GKC9ObyaO3XG50iQMv47dYVtOP660fGeOE-wewbG6nTfZ5fVVt037HgV4U4aCGA-j9_g2fE6O3W4nOMbyzKSmh9OQyuqeJnC8QDrgS8TRzn3NQmLiLN4gC3Lt5p4vGRU6IQU9BBpqL1eoIpMEh81YYaXk_Njkm-qfj0Bb8QZp8dKKGhZ_6wm-rtf0ztLJ4483ntM269uy5_NCEn15DbXu86XQZG-T3o1i6HvaNGqA8cDn6ihy7O0Hua_l1RgANxwnGS4LLBIFOG9ssvPrS6jE6x4FaHOhJLs-uu1IrM_Uq9ngdncujv5Mz6Om5RPnUhk0saQwNoDwORRfKd83S8ir3ow2JFepPFU6Zf8Kaadk8pyMuXqoenfk2cRMPAEOTWZjT2flJ59z_qyUnIMDxVyMDMjQxCHHGYcRWl1Hoy8DckRToqI6xIL-AtvXDoD8LrthYe45wngJYGloIz5caBrYlnJIqKod8bcyWKJTH26VswCyT-HtPYFrTw7wsch7iOOXC1kqjLC3OufkzvqU8x8JW3zsJxG0wdnKDTElgzV8xTDZ-HjHJq3SBggPlyDz2QXIY4bAN3zK2MOb84x2Lw_7b1FASVqlO6WpGOr7qpt-fPGTz4P4nlSgUD4Zs7EmFR9Psrij6VKJkRePAPYvZE6OTIVIvFQRknq0MmrtGTv6cn7LDR__ZGROVegfxH6Ya6Tc3dNqlMB9XWUHBhjjS4V3W1ju3RoIODXZmrwhT-Xu5Ewvz3S-dTCtm_UGEdaYdDIRc5kfashxSXjE-Kjv9X5faawDq0Z75zNp6zavzufWaP4ramfjWs2fGMzil_Huz9UpoAyZJpg6qTOmXvAehDTlh4EIrGjkyjXOthtyny4J-9baL3Ts0aoDRUoHcqEvDTN5n-TYVSukNvpwsfGlGE6NhEvGRLASenCuhv_EZsDbhz_lpWvMqHueq99XE2_gdwL7iZ0UjMtdkoGGz3PoKaFz2lNduAMsBbf3kWYmfe8_0y0?></g></svg>